<?xml version="1.0" encoding="UTF-8"?> <svg xmlns="http://www.w3.org/2000/svg" width="1280" height="800" viewBox="0 0 1280 800" fill="none"> <path fill-rule="evenodd" clip-rule="evenodd" d="M819.486 512.626C887.396 478.148 947.993 431.133 991.873 370.537C1102.62 216.955 1053.51 90.5381 939.635 34.1205C868.59 -1.40175 772.472 -7.67034 673.218 16.3594C645.01 23.6728 617.846 32.0309 591.726 42.4787C362.921 134.418 200.982 358 229.191 571.133C246.952 467.7 299.19 376.805 391.13 289.045C476.802 208.597 589.637 144.866 703.517 131.284C869.635 111.434 952.172 238.896 841.426 372.626C786.054 439.492 603.219 531.431 540.533 464.566C533.219 491.73 539.488 518.894 564.562 538.745C619.935 587.849 757.845 543.969 819.486 512.626Z" fill="#FE6A00"></path> <path fill-rule="evenodd" clip-rule="evenodd" d="M775.607 403.97C863.368 356.955 914.561 221.135 806.95 166.807C746.353 138.598 664.861 154.27 600.085 179.344C485.161 224.269 360.833 326.657 300.236 434.268C243.819 535.611 237.55 629.64 274.117 695.461C321.132 781.132 421.43 799.938 502.922 797.849C733.816 791.58 978.292 628.596 1051.43 395.612C968.889 524.119 735.906 693.372 573.966 625.461C456.952 576.357 501.877 437.403 565.608 364.269C609.488 314.12 667.996 277.553 723.368 266.06C857.099 238.896 829.935 352.776 775.607 403.97Z" fill="#612AA1"></path> </svg> 